<svg width="35" height="35" viewBox="0 0 35 35" fill="none" xmlns="http://www.w3.org/2000/svg">
<path d="M22.9688 17.5C22.9688 18.9504 22.3926 20.3414 21.367 21.367C20.3414 22.3926 18.9504 22.9688 17.5 22.9688C16.0496 22.9688 14.6586 22.3926 13.633 21.367C12.6074 20.3414 12.0313 18.9504 12.0312 17.5C12.0313 16.0496 12.6074 14.6586 13.633 13.633C14.6586 12.6074 16.0496 12.0312 17.5 12.0312C18.9504 12.0312 20.3414 12.6074 21.367 13.633C22.3926 14.6586 22.9688 16.0496 22.9688 17.5Z" fill="#C4C4C4"/>
<path d="M0 17.5C0 17.5 6.5625 5.46875 17.5 5.46875C28.4375 5.46875 35 17.5 35 17.5C35 17.5 28.4375 29.5312 17.5 29.5312C6.5625 29.5312 0 17.5 0 17.5ZM17.5 25.1562C19.5306 25.1562 21.478 24.3496 22.9138 22.9138C24.3496 21.478 25.1562 19.5306 25.1562 17.5C25.1562 15.4694 24.3496 13.522 22.9138 12.0862C21.478 10.6504 19.5306 9.84375 17.5 9.84375C15.4694 9.84375 13.522 10.6504 12.0862 12.0862C10.6504 13.522 9.84375 15.4694 9.84375 17.5C9.84375 19.5306 10.6504 21.478 12.0862 22.9138C13.522 24.3496 15.4694 25.1562 17.5 25.1562Z" fill="#C4C4C4"/>
</svg>
