<svg width="375" height="7" viewBox="0 0 375 7" fill="none" xmlns="http://www.w3.org/2000/svg">
<path fill-rule="evenodd" clip-rule="evenodd" d="M72.4424 3.42074L70.8566 4.71828L69.2854 6.01581L67.7142 4.71828L66.143 3.42074L67.7142 2.13884L69.2854 0.841308L70.8566 2.13884L72.4424 3.42074Z" fill="white" fill-opacity="0.7"/>
<path fill-rule="evenodd" clip-rule="evenodd" d="M62.9941 3.42074L61.4084 4.71828L59.8372 6.01581L58.266 4.71828L56.6947 3.42074L58.266 2.13884L59.8372 0.841308L61.4084 2.13884L62.9941 3.42074Z" fill="white" fill-opacity="0.7"/>
<path fill-rule="evenodd" clip-rule="evenodd" d="M53.5449 3.42074L51.9592 4.71828L50.3879 6.01581L48.8167 4.71828L47.2455 3.42074L48.8167 2.13884L50.388 0.841308L51.9592 2.13884L53.5449 3.42074Z" fill="white" fill-opacity="0.7"/>
<path fill-rule="evenodd" clip-rule="evenodd" d="M44.0957 3.42074L42.5099 4.71828L40.9387 6.01581L39.3675 4.71828L37.7963 3.42074L39.3675 2.13884L40.9387 0.841308L42.5099 2.13884L44.0957 3.42074Z" fill="white" fill-opacity="0.7"/>
<path fill-rule="evenodd" clip-rule="evenodd" d="M34.6465 3.42074L33.0607 4.71828L31.4895 6.01581L29.9183 4.71828L28.3471 3.42074L29.9183 2.13884L31.4895 0.841308L33.0607 2.13884L34.6465 3.42074Z" fill="white" fill-opacity="0.7"/>
<path fill-rule="evenodd" clip-rule="evenodd" d="M25.1973 3.42074L23.6115 4.71828L22.0403 6.01581L20.4691 4.71828L18.8979 3.42074L20.4691 2.13884L22.0403 0.841308L23.6115 2.13884L25.1973 3.42074Z" fill="white" fill-opacity="0.7"/>
<path fill-rule="evenodd" clip-rule="evenodd" d="M15.749 3.42074L14.1633 4.71828L12.5921 6.01581L11.0208 4.71828L9.44963 3.42074L11.0208 2.13884L12.5921 0.841308L14.1633 2.13884L15.749 3.42074Z" fill="white" fill-opacity="0.7"/>
<path fill-rule="evenodd" clip-rule="evenodd" d="M6.2998 3.42074L4.71404 4.71828L3.14283 6.01581L1.57162 4.71828L0.00040806 3.42074L1.57162 2.13884L3.14283 0.841308L4.71404 2.13884L6.2998 3.42074Z" fill="white" fill-opacity="0.7"/>
<path fill-rule="evenodd" clip-rule="evenodd" d="M148.082 3.42074L146.496 4.71828L144.925 6.01581L143.354 4.71828L141.783 3.42074L143.354 2.13884L144.925 0.841308L146.496 2.13884L148.082 3.42074Z" fill="white" fill-opacity="0.7"/>
<path fill-rule="evenodd" clip-rule="evenodd" d="M138.634 3.42074L137.048 4.71828L135.477 6.01581L133.906 4.71828L132.334 3.42074L133.906 2.13884L135.477 0.841308L137.048 2.13884L138.634 3.42074Z" fill="white" fill-opacity="0.7"/>
<path fill-rule="evenodd" clip-rule="evenodd" d="M129.184 3.42074L127.598 4.71828L126.027 6.01581L124.455 4.71828L122.884 3.42074L124.455 2.13884L126.027 0.841308L127.598 2.13884L129.184 3.42074Z" fill="white" fill-opacity="0.7"/>
<path fill-rule="evenodd" clip-rule="evenodd" d="M119.735 3.42074L118.15 4.71828L116.578 6.01581L115.007 4.71828L113.436 3.42074L115.007 2.13884L116.578 0.841308L118.15 2.13884L119.735 3.42074Z" fill="white" fill-opacity="0.7"/>
<path fill-rule="evenodd" clip-rule="evenodd" d="M110.285 3.42074L108.699 4.71828L107.128 6.01581L105.557 4.71828L103.986 3.42074L105.557 2.13884L107.128 0.841308L108.699 2.13884L110.285 3.42074Z" fill="white" fill-opacity="0.7"/>
<path fill-rule="evenodd" clip-rule="evenodd" d="M100.837 3.42074L99.2512 4.71828L97.6799 6.01581L96.1087 4.71828L94.5375 3.42074L96.1087 2.13884L97.6799 0.841308L99.2512 2.13884L100.837 3.42074Z" fill="white" fill-opacity="0.7"/>
<path fill-rule="evenodd" clip-rule="evenodd" d="M91.3887 3.42074L89.8029 4.71828L88.2317 6.01581L86.6605 4.71828L85.0893 3.42074L86.6605 2.13884L88.2317 0.841308L89.8029 2.13884L91.3887 3.42074Z" fill="white" fill-opacity="0.7"/>
<path fill-rule="evenodd" clip-rule="evenodd" d="M81.9385 3.42074L80.3527 4.71828L78.7815 6.01581L77.2103 4.71828L75.6391 3.42074L77.2103 2.13884L78.7815 0.841308L80.3527 2.13884L81.9385 3.42074Z" fill="white" fill-opacity="0.7"/>
<path fill-rule="evenodd" clip-rule="evenodd" d="M223.721 3.42074L222.135 4.71828L220.564 6.01581L218.993 4.71828L217.421 3.42074L218.993 2.13884L220.564 0.841308L222.135 2.13884L223.721 3.42074Z" fill="white" fill-opacity="0.7"/>
<path fill-rule="evenodd" clip-rule="evenodd" d="M214.271 3.42074L212.686 4.71828L211.115 6.01581L209.543 4.71828L207.972 3.42074L209.543 2.13884L211.115 0.841308L212.686 2.13884L214.271 3.42074Z" fill="white" fill-opacity="0.7"/>
<path fill-rule="evenodd" clip-rule="evenodd" d="M204.822 3.42074L203.237 4.71828L201.665 6.01581L200.094 4.71828L198.523 3.42074L200.094 2.13884L201.665 0.841308L203.237 2.13884L204.822 3.42074Z" fill="white" fill-opacity="0.7"/>
<path fill-rule="evenodd" clip-rule="evenodd" d="M195.374 3.42074L193.788 4.71828L192.217 6.01581L190.646 4.71828L189.075 3.42074L190.646 2.13884L192.217 0.841308L193.788 2.13884L195.374 3.42074Z" fill="white" fill-opacity="0.7"/>
<path fill-rule="evenodd" clip-rule="evenodd" d="M185.924 3.42074L184.338 4.71828L182.767 6.01581L181.196 4.71828L179.624 3.42074L181.196 2.13884L182.767 0.841308L184.338 2.13884L185.924 3.42074Z" fill="white" fill-opacity="0.7"/>
<path fill-rule="evenodd" clip-rule="evenodd" d="M176.476 3.42074L174.89 4.71828L173.319 6.01581L171.747 4.71828L170.176 3.42074L171.747 2.13884L173.319 0.841308L174.89 2.13884L176.476 3.42074Z" fill="white" fill-opacity="0.7"/>
<path fill-rule="evenodd" clip-rule="evenodd" d="M167.026 3.42074L165.441 4.71828L163.869 6.01581L162.298 4.71828L160.727 3.42074L162.298 2.13884L163.869 0.841308L165.441 2.13884L167.026 3.42074Z" fill="white" fill-opacity="0.7"/>
<path fill-rule="evenodd" clip-rule="evenodd" d="M157.577 3.42074L155.991 4.71828L154.42 6.01581L152.849 4.71828L151.278 3.42074L152.849 2.13884L154.42 0.841308L155.991 2.13884L157.577 3.42074Z" fill="white" fill-opacity="0.7"/>
<path fill-rule="evenodd" clip-rule="evenodd" d="M299.36 3.42074L297.775 4.71828L296.203 6.01581L294.632 4.71828L293.061 3.42074L294.632 2.13884L296.203 0.841308L297.775 2.13884L299.36 3.42074Z" fill="white" fill-opacity="0.7"/>
<path fill-rule="evenodd" clip-rule="evenodd" d="M289.912 3.42074L288.326 4.71828L286.755 6.01581L285.184 4.71828L283.613 3.42074L285.184 2.13884L286.755 0.841308L288.326 2.13884L289.912 3.42074Z" fill="white" fill-opacity="0.7"/>
<path fill-rule="evenodd" clip-rule="evenodd" d="M280.463 3.42074L278.877 4.71828L277.306 6.01581L275.735 4.71828L274.163 3.42074L275.735 2.13884L277.306 0.841308L278.877 2.13884L280.463 3.42074Z" fill="white" fill-opacity="0.7"/>
<path fill-rule="evenodd" clip-rule="evenodd" d="M271.014 3.42074L269.428 4.71828L267.857 6.01581L266.285 4.71828L264.714 3.42074L266.285 2.13884L267.857 0.841308L269.428 2.13884L271.014 3.42074Z" fill="white" fill-opacity="0.7"/>
<path fill-rule="evenodd" clip-rule="evenodd" d="M261.564 3.42074L259.979 4.71828L258.407 6.01581L256.836 4.71828L255.265 3.42074L256.836 2.13884L258.407 0.841308L259.979 2.13884L261.564 3.42074Z" fill="white" fill-opacity="0.7"/>
<path fill-rule="evenodd" clip-rule="evenodd" d="M252.115 3.42074L250.529 4.71828L248.958 6.01581L247.387 4.71828L245.816 3.42074L247.387 2.13884L248.958 0.841308L250.529 2.13884L252.115 3.42074Z" fill="white" fill-opacity="0.7"/>
<path fill-rule="evenodd" clip-rule="evenodd" d="M242.667 3.42074L241.081 4.71828L239.51 6.01581L237.939 4.71828L236.368 3.42074L237.939 2.13884L239.51 0.841308L241.081 2.13884L242.667 3.42074Z" fill="white" fill-opacity="0.7"/>
<path fill-rule="evenodd" clip-rule="evenodd" d="M233.218 3.42074L231.632 4.71828L230.061 6.01581L228.49 4.71828L226.918 3.42074L228.49 2.13884L230.061 0.841308L231.632 2.13884L233.218 3.42074Z" fill="white" fill-opacity="0.7"/>
<path fill-rule="evenodd" clip-rule="evenodd" d="M375 3.42074L373.414 4.71828L371.843 6.01581L370.272 4.71828L368.701 3.42074L370.272 2.13884L371.843 0.841308L373.414 2.13884L375 3.42074Z" fill="white" fill-opacity="0.7"/>
<path fill-rule="evenodd" clip-rule="evenodd" d="M365.552 3.42074L363.966 4.71828L362.395 6.01581L360.824 4.71828L359.252 3.42074L360.824 2.13884L362.395 0.841308L363.966 2.13884L365.552 3.42074Z" fill="white" fill-opacity="0.7"/>
<path fill-rule="evenodd" clip-rule="evenodd" d="M356.102 3.42074L354.516 4.71828L352.945 6.01581L351.373 4.71828L349.802 3.42074L351.373 2.13884L352.945 0.841308L354.516 2.13884L356.102 3.42074Z" fill="white" fill-opacity="0.7"/>
<path fill-rule="evenodd" clip-rule="evenodd" d="M346.653 3.42074L345.068 4.71828L343.496 6.01581L341.925 4.71828L340.354 3.42074L341.925 2.13884L343.496 0.841308L345.068 2.13884L346.653 3.42074Z" fill="white" fill-opacity="0.7"/>
<path fill-rule="evenodd" clip-rule="evenodd" d="M337.203 3.42074L335.617 4.71828L334.046 6.01581L332.475 4.71828L330.904 3.42074L332.475 2.13884L334.046 0.841308L335.617 2.13884L337.203 3.42074Z" fill="white" fill-opacity="0.7"/>
<path fill-rule="evenodd" clip-rule="evenodd" d="M327.755 3.42074L326.169 4.71828L324.598 6.01581L323.027 4.71828L321.455 3.42074L323.027 2.13884L324.598 0.841308L326.169 2.13884L327.755 3.42074Z" fill="white" fill-opacity="0.7"/>
<path fill-rule="evenodd" clip-rule="evenodd" d="M318.307 3.42074L316.721 4.71828L315.15 6.01581L313.578 4.71828L312.007 3.42074L313.578 2.13884L315.15 0.841308L316.721 2.13884L318.307 3.42074Z" fill="white" fill-opacity="0.7"/>
<path fill-rule="evenodd" clip-rule="evenodd" d="M308.856 3.42074L307.271 4.71828L305.699 6.01581L304.128 4.71828L302.557 3.42074L304.128 2.13884L305.699 0.841308L307.271 2.13884L308.856 3.42074Z" fill="white" fill-opacity="0.7"/>
</svg>
