<svg width="35" height="35" viewBox="0 0 35 35" fill="none" xmlns="http://www.w3.org/2000/svg">
<path d="M27.0915 2.1875H18.0469L23.8021 9.86152L27.0915 2.1875Z" fill="#C4C4C4"/>
<path d="M7.90845 2.1875L11.1979 9.86152L16.9531 2.1875H7.90845Z" fill="#C4C4C4"/>
<path d="M17.5 5.10437L13.125 10.9375H21.875L17.5 5.10437Z" fill="#C4C4C4"/>
<path d="M28.9126 3.49036L25.7209 10.9374H33.3594L28.9126 3.49036Z" fill="#C4C4C4"/>
<path d="M6.0874 3.49036L1.57227 10.9374H9.2791L6.0874 3.49036Z" fill="#C4C4C4"/>
<path d="M10.027 13.125H1.64062L16.8711 32.8125H16.9073L10.027 13.125Z" fill="#C4C4C4"/>
<path d="M24.9731 13.125L18.0928 32.8125H18.129L33.3595 13.125H24.9731Z" fill="#C4C4C4"/>
<path d="M22.5169 13.125H12.4832L17.5 27.3438L22.5169 13.125Z" fill="#C4C4C4"/>
</svg>
