<svg width="220" height="80" viewBox="0 0 220 80" fill="none" xmlns="http://www.w3.org/2000/svg">
<path fill-rule="evenodd" clip-rule="evenodd" d="M29.7031 41.054L36.997 50.6566L44.291 60.1712L36.997 69.6858L29.7031 79.2003L22.4971 69.6858L15.2031 60.1712L22.4971 50.6566L29.7031 41.054Z" fill="#10069F"/>
<path fill-rule="evenodd" clip-rule="evenodd" d="M14.5 20.1746L21.7939 29.6891L29.0879 39.2918L21.7939 48.8064L14.5 58.3209L7.29394 48.8064L0 39.2918L7.29394 29.6891L14.5 20.1746Z" fill="#10069F"/>
<path fill-rule="evenodd" clip-rule="evenodd" d="M30.2305 0L37.5244 9.51457L44.8183 19.0291L37.5244 28.6318L30.2305 38.1464L22.9365 28.6318L15.7305 19.0291L22.9365 9.51457L30.2305 0Z" fill="#10069F"/>
<path d="M171.275 36.2085L174.087 18.5009H178.833L180.503 30.8346L186.127 18.5009H190.784L187.972 36.2085H184.721L186.566 24.5796L181.206 36.2085H177.954L176.46 24.5796L174.615 36.2085H171.275ZM159.939 27.1345C159.587 29.1607 159.675 30.5703 160.203 31.5393C160.73 32.5084 161.433 32.9489 162.312 32.9489C163.19 32.9489 163.981 32.5084 164.684 31.6274C165.387 30.7465 165.915 29.3369 166.266 27.3106C166.53 25.4606 166.442 24.051 166.003 23.17C165.563 22.2891 164.86 21.8486 163.981 21.8486C163.015 21.8486 162.224 22.2891 161.433 23.17C160.73 24.051 160.203 25.3725 159.939 27.1345ZM157.478 18.589H161.081L160.642 21.1438C161.257 20.1747 162.048 19.4699 162.927 18.9413C163.806 18.4128 164.684 18.1485 165.651 18.1485C167.321 18.1485 168.551 18.9413 169.518 20.5271C170.484 22.1129 170.66 24.3153 170.221 27.2225C169.781 30.306 168.815 32.5965 167.321 34.1823C165.827 35.768 164.333 36.649 162.663 36.649C161.872 36.649 161.257 36.4728 160.642 36.1204C160.027 35.768 159.5 35.0633 158.884 34.0942L157.478 42.9921H153.612L157.478 18.589ZM149.306 27.7511C148.778 27.9273 147.987 28.1916 146.933 28.4559C145.703 28.8083 144.824 29.0726 144.472 29.5131C144.033 29.8655 143.769 30.3941 143.681 31.0108C143.593 31.7155 143.681 32.2441 144.033 32.6846C144.384 33.1251 144.824 33.3894 145.439 33.3894C145.966 33.3894 146.581 33.2132 147.109 32.8608C147.724 32.5084 148.163 32.0679 148.427 31.5393C148.69 31.0108 148.954 30.1298 149.13 28.7202L149.306 27.7511ZM144.824 23.9629L141.484 23.2581C142.187 21.4962 143.066 20.1747 144.209 19.3818C145.263 18.589 146.757 18.2366 148.515 18.2366C150.096 18.2366 151.327 18.5009 152.118 18.9413C152.909 19.3818 153.436 19.9985 153.612 20.7914C153.875 21.5843 153.787 22.9938 153.524 25.1082L152.645 30.5703C152.381 32.0679 152.293 33.2132 152.293 34.0061C152.293 34.799 152.381 35.5918 152.557 36.3847H148.778L148.603 34.4466C147.812 35.2395 147.021 35.768 146.23 36.2085C145.439 36.5609 144.56 36.8252 143.769 36.8252C142.363 36.8252 141.309 36.3847 140.518 35.4157C139.727 34.4466 139.551 33.2132 139.727 31.6274C139.903 30.6584 140.166 29.7774 140.693 28.9845C141.221 28.2797 141.748 27.663 142.539 27.2225C143.242 26.7821 144.384 26.3416 145.966 26.0773C147.812 25.6368 149.13 25.2844 149.833 24.932C150.009 23.9629 150.009 23.3462 149.921 22.9938C149.833 22.7296 149.657 22.4653 149.306 22.201C148.954 22.0248 148.427 21.9367 147.812 21.9367C147.109 21.9367 146.581 22.1129 146.142 22.3772C145.615 22.5534 145.263 23.082 144.824 23.9629ZM134.981 27.4868C135.245 25.813 135.245 24.4034 134.893 23.3462C134.542 22.2891 134.015 21.7605 133.312 21.7605C132.609 21.7605 131.906 22.2891 131.203 23.3462C130.5 24.4034 130.06 25.813 129.797 27.5749C129.533 29.2488 129.621 30.5703 129.884 31.5393C130.236 32.5084 130.763 33.037 131.554 33.037C132.257 33.037 132.872 32.5084 133.575 31.4512C134.278 30.3941 134.806 29.0726 134.981 27.4868ZM126.106 27.2225C126.369 25.5487 126.369 24.1391 125.93 23.17C125.578 22.201 125.051 21.6724 124.348 21.6724C123.645 21.6724 122.942 22.201 122.239 23.2581C121.536 24.3153 121.009 25.7249 120.745 27.3987C120.481 29.0726 120.481 30.3941 120.833 31.4512C121.184 32.5084 121.712 33.037 122.503 33.037C123.293 33.037 123.997 32.5084 124.7 31.4512C125.315 30.4822 125.842 29.0726 126.106 27.2225ZM128.83 34.1823L127.424 43.0802H123.557L124.963 34.1823C123.557 35.8561 122.151 36.649 120.745 36.649C119.163 36.649 118.021 35.768 117.318 34.0061C116.615 32.2441 116.439 30.0417 116.878 27.3106C117.318 24.6677 118.197 22.4653 119.603 20.7914C121.009 19.0294 122.415 18.1485 123.821 18.1485C125.315 18.1485 126.369 18.9413 127.072 20.6152L128.478 11.8054H132.345L130.939 20.7033C132.169 18.9413 133.575 18.0604 135.157 18.0604C136.651 18.0604 137.793 18.9413 138.497 20.7033C139.2 22.4653 139.375 24.6677 138.936 27.3987C138.497 29.9536 137.618 32.156 136.212 33.918C134.806 35.68 133.4 36.5609 131.906 36.5609C130.587 36.649 129.533 35.8561 128.83 34.1823ZM104.4 27.3987C104.136 29.1607 104.224 30.5703 104.839 31.4512C105.366 32.3322 106.157 32.8608 107.124 32.8608C108.09 32.8608 108.969 32.4203 109.848 31.4512C110.639 30.5703 111.254 29.1607 111.518 27.3987C111.781 25.6368 111.693 24.3153 111.078 23.3462C110.551 22.4653 109.76 21.9367 108.794 21.9367C107.827 21.9367 106.948 22.3772 106.069 23.3462C105.19 24.3153 104.663 25.6368 104.4 27.3987ZM100.533 27.1345C100.797 25.3725 101.412 23.7867 102.29 22.3772C103.169 20.9676 104.224 19.9104 105.454 19.2056C106.684 18.5009 108.003 18.1485 109.321 18.1485C111.606 18.1485 113.363 19.0294 114.33 20.8795C115.384 22.7296 115.736 24.8439 115.297 27.3106C115.033 29.1607 114.418 30.7465 113.451 32.2441C112.572 33.7418 111.43 34.799 110.2 35.5918C108.969 36.2966 107.651 36.7371 106.333 36.7371C104.224 36.7371 102.554 35.9442 101.412 34.2704C100.357 32.5084 100.006 30.2179 100.533 27.1345ZM88.6693 28.7202L87.9662 33.3013H91.3056C93.239 33.3013 94.2935 32.5084 94.5572 31.0108C94.645 30.306 94.5572 29.6893 94.1178 29.3369C93.6784 28.8964 92.7117 28.7202 91.042 28.7202H88.6693ZM89.7238 21.4962L89.0208 25.813H91.8329C93.8541 25.813 94.9965 25.0201 95.2602 23.5224C95.4359 22.1129 94.5571 21.4081 92.5359 21.4081H89.7238V21.4962ZM92.9753 36.2085H83.5723L86.3844 18.5009H94.9965C98.2481 18.5009 99.5662 19.9985 99.1268 23.082C98.7753 25.1082 97.8087 26.5178 96.0511 27.1345C97.8965 27.8392 98.6874 29.2488 98.3359 31.5393C98.1602 32.9489 97.545 34.0942 96.5784 34.8871C95.5238 35.8561 94.3814 36.2085 92.9753 36.2085ZM71.6208 27.3987C71.3572 29.1607 71.445 30.5703 72.0602 31.4512C72.5875 32.3322 73.3784 32.8608 74.345 32.8608C75.3117 32.8608 76.1905 32.4203 77.0693 31.4512C77.8602 30.5703 78.4753 29.1607 78.739 27.3987C79.0026 25.6368 78.9147 24.3153 78.2996 23.3462C77.7723 22.4653 76.9814 21.9367 76.0147 21.9367C75.0481 21.9367 74.1693 22.3772 73.2905 23.3462C72.4117 24.3153 71.8844 25.6368 71.6208 27.3987ZM67.7541 27.1345C68.0178 25.3725 68.6329 23.7867 69.5117 22.3772C70.3905 20.9676 71.445 19.9104 72.6753 19.2056C73.9056 18.5009 75.2238 18.1485 76.542 18.1485C78.8269 18.1485 80.5844 19.0294 81.5511 20.8795C82.6056 22.7296 82.9571 24.8439 82.5178 27.3106C82.2541 29.1607 81.639 30.7465 80.6723 32.2441C79.7935 33.7418 78.6511 34.799 77.4208 35.5918C76.1905 36.2966 74.8723 36.7371 73.5541 36.7371C71.445 36.7371 69.7754 35.9442 68.6329 34.2704C67.5784 32.5084 67.2269 30.2179 67.7541 27.1345ZM47.8057 36.2085L51.6723 11.8054H55.7147L54.2208 21.4081H62.1299L63.6238 11.8054H67.6663L63.7996 36.2085H59.7572L61.4269 25.5487H53.5178L51.8481 36.2085H47.8057Z" fill="#10069F"/>
<path d="M176.021 58.0563H175.318L175.845 55.061C177.603 55.061 178.657 54.2681 178.921 52.7704C179.009 52.1538 178.921 51.6252 178.657 51.1847C178.393 50.7442 177.954 50.568 177.339 50.568C176.197 50.568 175.23 51.3609 174.527 52.8585L171.363 51.9776C172.594 48.8941 174.79 47.3084 177.866 47.3084C179.536 47.3084 180.766 47.7489 181.645 48.7179C182.524 49.687 182.787 50.9204 182.524 52.4181C182.26 54.0919 181.206 55.4134 179.272 56.3825C181.294 57.1753 182.084 58.5849 181.733 60.6992C181.469 62.1969 180.766 63.3422 179.536 64.3113C178.306 65.2803 176.724 65.7208 174.878 65.7208C171.539 65.7208 169.694 64.047 169.342 60.7874L172.945 59.9945C173.209 61.7564 174 62.5493 175.318 62.5493C176.021 62.5493 176.548 62.285 177.163 61.8445C177.69 61.404 178.042 60.8754 178.13 60.1707C178.218 59.4659 178.13 58.9373 177.69 58.5849C177.251 58.2325 176.724 58.0563 176.021 58.0563ZM165.212 54.9729C165.387 53.5633 165.3 52.5942 164.86 51.8895C164.421 51.1847 163.806 50.8323 163.015 50.8323C162.224 50.8323 161.433 51.1847 160.818 51.8895C160.115 52.5942 159.675 53.6514 159.5 54.9729H165.212ZM164.245 59.7302L167.936 60.5231C167.145 62.285 166.178 63.6065 164.948 64.4875C163.718 65.3684 162.4 65.8089 160.818 65.8089C158.709 65.8089 157.127 65.1041 156.248 63.6946C155.106 62.0207 154.842 59.7302 155.281 56.7348C155.721 53.7395 156.863 51.449 158.533 49.5989C159.939 48.1012 161.609 47.3965 163.454 47.3965C165.563 47.3965 167.057 48.1894 167.936 49.687C168.99 51.449 169.254 54.0038 168.727 57.4396L168.639 57.9682H159.06C158.884 59.3778 158.972 60.435 159.5 61.2278C159.939 62.0207 160.642 62.3731 161.521 62.3731C162.575 62.1969 163.542 61.404 164.245 59.7302ZM142.012 51.3609L142.627 47.6608H155.721L155.106 51.3609H150.448L148.163 65.3684H144.297L146.581 51.3609H142.012ZM124.612 65.3684L127.424 47.6608H131.291L130.236 54.0919H135.684L136.739 47.6608H140.606L137.794 65.3684H133.927L135.157 57.8801H129.709L128.478 65.3684H124.612ZM107.739 65.3684L110.551 47.6608H114.242L112.484 58.7611L120.13 47.6608H123.909L121.097 65.3684H117.406L119.251 54.0038L111.43 65.3684H107.739ZM107.124 52.9466L103.257 53.7395C103.257 51.8895 102.554 50.9204 101.06 50.9204C100.094 50.9204 99.3027 51.2728 98.5996 52.1538C97.8966 52.9466 97.3693 54.2681 97.1057 56.2063C96.7542 58.3206 96.8421 59.8183 97.2814 60.6111C97.7208 61.4921 98.4239 61.9326 99.3905 61.9326C100.094 61.9326 100.709 61.6683 101.324 61.2278C101.851 60.6993 102.378 59.8183 102.73 58.5849L106.333 59.3778C104.839 63.6065 102.291 65.8089 98.5996 65.8089C96.2269 65.8089 94.6451 64.9279 93.7663 63.0779C92.8875 61.3159 92.7118 59.1135 93.0633 56.5587C93.5905 53.5633 94.5572 51.1847 96.139 49.5989C97.7208 48.0132 99.4784 47.2203 101.588 47.2203C103.257 47.2203 104.575 47.6608 105.542 48.5417C106.421 49.5108 106.948 50.9204 107.124 52.9466ZM80.0572 56.4705C79.7936 58.2325 79.8815 59.6421 80.4087 60.5231C80.936 61.404 81.7269 61.9326 82.6936 61.9326C83.6603 61.9326 84.539 61.4921 85.4178 60.5231C86.2087 59.6421 86.8239 58.2325 87.0875 56.4705C87.3512 54.7086 87.2633 53.3871 86.6481 52.4181C86.1209 51.5371 85.3299 51.0085 84.3633 51.0085C83.3966 51.0085 82.5178 51.449 81.639 52.4181C80.936 53.3871 80.3209 54.7086 80.0572 56.4705ZM76.1906 56.2944C76.4542 54.5324 77.0693 52.9466 77.9481 51.5371C78.8269 50.1275 79.9693 49.0703 81.1118 48.3655C82.3421 47.6608 83.6602 47.3084 84.9784 47.3084C87.2633 47.3084 88.933 48.1893 89.9875 50.0394C91.0421 51.8895 91.3057 54.0038 90.9542 56.4705C90.6905 58.3206 90.0754 59.9064 89.1087 61.404C88.1421 62.9017 87.0875 63.9589 85.8572 64.7518C84.6269 65.4565 83.3087 65.897 81.9906 65.897C79.8815 65.897 78.2118 65.1041 77.0693 63.4303C76.0148 61.6683 75.6633 59.2897 76.1906 56.2944ZM68.1057 65.3684L70.9178 47.6608H74.7845L71.9724 65.3684H68.1057ZM71.2694 45.2821L71.9724 40.9653H75.839L75.136 45.2821H71.2694ZM54.0451 54.7967L52.9906 61.2278H57.2088C58.3512 61.2278 59.1421 61.1397 59.6694 60.9635C60.1966 60.7873 60.636 60.435 61.1633 59.9064C61.6027 59.3778 61.8663 58.7611 62.0421 57.9682C62.3936 55.7658 61.2512 54.7086 58.5269 54.7086H54.0451V54.7967ZM48.333 65.3684L52.2875 40.9653H67.2269L66.5239 45.1059H55.6269L54.7482 50.6561H60.4603C62.6572 50.6561 64.2391 51.3609 65.2057 52.6823C66.2603 54.0038 66.5239 55.7658 66.1724 58.0563C65.8209 59.9945 65.03 61.6683 63.7997 63.166C62.4815 64.6637 60.636 65.3684 58.0876 65.3684H48.333Z" fill="#10069F"/>
<path fill-rule="evenodd" clip-rule="evenodd" d="M213.324 16.5995C213.324 16.4478 213.272 16.2962 213.22 16.1446C213.168 15.9929 213.064 15.8918 212.855 15.8413C212.699 15.7402 212.542 15.6896 212.334 15.6896C212.125 15.6896 211.916 15.6391 211.656 15.6391H211.082V17.762H211.551C211.864 17.762 212.125 17.762 212.386 17.7115C212.594 17.6609 212.803 17.6104 212.907 17.5093C213.064 17.4082 213.168 17.3071 213.22 17.1555C213.272 17.0038 213.324 16.8017 213.324 16.5995ZM216.61 21.9574H214.211L211.864 19.1773H211.082V21.9574H209.205V14.3754H212.125C212.647 14.3754 213.116 14.3754 213.429 14.426C213.742 14.4765 214.055 14.5776 214.42 14.7293C214.785 14.9314 215.045 15.1336 215.202 15.4369C215.358 15.6896 215.463 16.0435 215.463 16.4478C215.463 17.0038 215.306 17.4588 214.993 17.8126C214.68 18.1664 214.263 18.4697 213.742 18.6719L216.61 21.9574ZM218.279 18.318C218.279 16.7006 217.705 15.2853 216.506 14.0722C215.306 12.9096 213.898 12.303 212.281 12.303C210.613 12.303 209.205 12.9096 208.057 14.0722C206.858 15.2347 206.284 16.65 206.284 18.318C206.284 19.9355 206.858 21.3508 208.057 22.5639C209.205 23.7265 210.665 24.3331 212.281 24.3331C213.95 24.3331 215.358 23.7265 216.506 22.5639C217.705 21.3508 218.279 19.9861 218.279 18.318ZM220 18.318C220 20.441 219.27 22.2101 217.757 23.7265C216.245 25.2429 214.42 25.9505 212.334 25.9505C210.195 25.9505 208.37 25.1923 206.858 23.7265C205.345 22.2101 204.615 20.441 204.615 18.318C204.615 16.1951 205.345 14.426 206.858 12.9096C208.37 11.3932 210.195 10.6855 212.334 10.6855C214.472 10.6855 216.297 11.4437 217.757 12.9096C219.218 14.426 220 16.1951 220 18.318Z" fill="#10069F"/>
</svg>
