<svg width="5" height="70" viewBox="0 0 5 70" fill="none" xmlns="http://www.w3.org/2000/svg">
<path fill-rule="evenodd" clip-rule="evenodd" d="M2.49245 0L3.74622 1.53228L5 3.05051L3.74622 4.56873L2.49245 6.08696L1.25378 4.56873L0 3.05051L1.25378 1.53228L2.49245 0Z" fill="white" fill-opacity="0.7"/>
<path fill-rule="evenodd" clip-rule="evenodd" d="M2.49245 9.13037L3.74622 10.6627L5 12.1809L3.74622 13.6991L2.49245 15.2173L1.25378 13.6991L0 12.1809L1.25378 10.6627L2.49245 9.13037Z" fill="white" fill-opacity="0.7"/>
<path fill-rule="evenodd" clip-rule="evenodd" d="M2.49245 18.261L3.74622 19.7933L5 21.3115L3.74622 22.8297L2.49245 24.3479L1.25378 22.8297L0 21.3115L1.25378 19.7933L2.49245 18.261Z" fill="white" fill-opacity="0.7"/>
<path fill-rule="evenodd" clip-rule="evenodd" d="M2.49245 27.3914L3.74622 28.9236L5 30.4419L3.74622 31.9601L2.49245 33.4783L1.25378 31.9601L0 30.4419L1.25378 28.9236L2.49245 27.3914Z" fill="white" fill-opacity="0.7"/>
<path fill-rule="evenodd" clip-rule="evenodd" d="M2.49245 36.5217L3.74622 38.054L5 39.5722L3.74622 41.0905L2.49245 42.6087L1.25378 41.0905L0 39.5722L1.25378 38.054L2.49245 36.5217Z" fill="white" fill-opacity="0.7"/>
<path fill-rule="evenodd" clip-rule="evenodd" d="M2.49245 45.6521L3.74622 47.1844L5 48.7026L3.74622 50.2208L2.49245 51.7391L1.25378 50.2208L0 48.7026L1.25378 47.1844L2.49245 45.6521Z" fill="white" fill-opacity="0.7"/>
<path fill-rule="evenodd" clip-rule="evenodd" d="M2.49245 54.7827L3.74622 56.315L5 57.8332L3.74622 59.3514L2.49245 60.8697L1.25378 59.3514L0 57.8332L1.25378 56.315L2.49245 54.7827Z" fill="white" fill-opacity="0.7"/>
<path fill-rule="evenodd" clip-rule="evenodd" d="M2.49245 63.9131L3.74622 65.4454L5 66.9636L3.74622 68.4818L2.49245 70L1.25378 68.4818L0 66.9636L1.25378 65.4454L2.49245 63.9131Z" fill="white" fill-opacity="0.7"/>
</svg>
