<svg width="20" height="23" viewBox="0 0 20 23" fill="none" xmlns="http://www.w3.org/2000/svg">
<path d="M17.9083 2.10472C15.1213 -0.701574 10.5828 -0.701574 7.79883 2.10472L0.0769505 9.87417C0.0266547 9.92481 2.73517e-05 9.99333 2.73517e-05 10.0648C2.73517e-05 10.1363 0.0266547 10.2048 0.0769505 10.2555L1.16866 11.3548C1.21857 11.4048 1.28612 11.4329 1.35653 11.4329C1.42695 11.4329 1.4945 11.4048 1.5444 11.3548L9.26628 3.58532C10.2249 2.6201 11.5 2.08983 12.855 2.08983C14.2101 2.08983 15.4852 2.6201 16.4408 3.58532C17.3994 4.55055 17.926 5.83453 17.926 7.19597C17.926 8.56039 17.3994 9.8414 16.4408 10.8066L8.57102 18.728L7.29587 20.012C6.10357 21.2126 4.1657 21.2126 2.97339 20.012C2.39647 19.4311 2.07991 18.6595 2.07991 17.8373C2.07991 17.015 2.39647 16.2434 2.97339 15.6625L10.7811 7.8037C10.9793 7.60708 11.2397 7.49686 11.5178 7.49686H11.5207C11.7988 7.49686 12.0562 7.60708 12.2515 7.8037C12.4497 8.0033 12.5562 8.26546 12.5562 8.5455C12.5562 8.82255 12.4467 9.08471 12.2515 9.28133L5.86984 15.7013C5.81954 15.7519 5.79292 15.8204 5.79292 15.8919C5.79292 15.9634 5.81954 16.0319 5.86984 16.0826L6.96155 17.1819C7.01145 17.2319 7.07901 17.26 7.14942 17.26C7.21984 17.26 7.28739 17.2319 7.33729 17.1819L13.716 10.759C14.3047 10.1661 14.6272 9.37964 14.6272 8.54252C14.6272 7.70539 14.3018 6.91594 13.716 6.32608C12.5 5.10168 10.5237 5.10466 9.3077 6.32608L8.55031 7.0917L1.50298 14.1849C1.02467 14.6637 0.645525 15.2334 0.387528 15.8608C0.12953 16.4883 -0.00218246 17.1611 2.73517e-05 17.8402C2.73517e-05 19.2195 0.535529 20.5154 1.50298 21.4896C2.50594 22.4965 3.81955 23 5.13315 23C6.44676 23 7.76037 22.4965 8.76037 21.4896L17.9083 12.2842C19.2544 10.9258 20 9.11748 20 7.19597C20.0029 5.27148 19.2574 3.46318 17.9083 2.10472Z" fill="#10069F"/>
</svg>
