<svg width="132" height="47" viewBox="0 0 132 47" fill="none" xmlns="http://www.w3.org/2000/svg">
<path fill-rule="evenodd" clip-rule="evenodd" d="M17.8221 24.3625L22.1984 30.0611L26.5748 35.7073L22.1984 41.3536L17.8221 46.9998L13.4984 41.3536L9.12207 35.7073L13.4984 30.0611L17.8221 24.3625Z" fill="white"/>
<path fill-rule="evenodd" clip-rule="evenodd" d="M8.70001 11.9722L13.0764 17.6184L17.4527 23.317L13.0764 28.9632L8.70001 34.6095L4.37637 28.9632L0 23.317L4.37637 17.6184L8.70001 11.9722Z" fill="white"/>
<path fill-rule="evenodd" clip-rule="evenodd" d="M18.1395 0L22.5158 5.64625L26.8922 11.2925L22.5158 16.991L18.1395 22.6373L13.7631 16.991L9.43945 11.2925L13.7631 5.64625L18.1395 0Z" fill="white"/>
<path d="M102.766 21.4875L104.453 10.9791H107.3L108.302 18.2984L111.676 10.9791H114.471L112.784 21.4875H110.833L111.94 14.5865L108.724 21.4875H106.773L105.876 14.5865L104.769 21.4875H102.766ZM95.9637 16.1026C95.7528 17.305 95.8055 18.1415 96.1219 18.7166C96.4382 19.2917 96.8601 19.5531 97.3873 19.5531C97.9146 19.5531 98.3891 19.2917 98.811 18.7689C99.2328 18.2461 99.5492 17.4096 99.7601 16.2072C99.9183 15.1093 99.8655 14.2728 99.6019 13.75C99.3382 13.2272 98.9164 12.9658 98.3892 12.9658C97.8092 12.9658 97.3346 13.2272 96.8601 13.75C96.4382 14.2728 96.1219 15.057 95.9637 16.1026ZM94.4873 11.0314H96.6491L96.3855 12.5476C96.7546 11.9725 97.2291 11.5542 97.7564 11.2405C98.2837 10.9269 98.811 10.77 99.391 10.77C100.393 10.77 101.131 11.2406 101.711 12.1816C102.291 13.1226 102.396 14.4296 102.133 16.1549C101.869 17.9847 101.289 19.344 100.393 20.285C99.4964 21.226 98.6001 21.7489 97.5982 21.7489C97.1237 21.7489 96.7546 21.6443 96.3855 21.4352C96.0164 21.2261 95.7001 20.8078 95.331 20.2327L94.4873 25.513H92.1673L94.4873 11.0314ZM89.5837 16.4686C89.2673 16.5731 88.7928 16.73 88.16 16.8868C87.4219 17.0959 86.8946 17.2528 86.6837 17.5142C86.42 17.7233 86.2619 18.037 86.2091 18.4029C86.1564 18.8212 86.2091 19.1348 86.42 19.3962C86.6309 19.6576 86.8946 19.8145 87.2637 19.8145C87.58 19.8145 87.9491 19.7099 88.2655 19.5008C88.6346 19.2917 88.8982 19.0303 89.0564 18.7166C89.2146 18.4029 89.3728 17.8801 89.4782 17.0436L89.5837 16.4686ZM86.8946 14.2205L84.8909 13.8023C85.3128 12.7567 85.84 11.9725 86.5255 11.5019C87.1582 11.0314 88.0546 10.8223 89.1091 10.8223C90.0582 10.8223 90.7964 10.9791 91.271 11.2405C91.7455 11.5019 92.0619 11.8679 92.1673 12.3384C92.3255 12.809 92.2728 13.6454 92.1146 14.9002L91.5873 18.1415C91.4291 19.0303 91.3764 19.7099 91.3764 20.1804C91.3764 20.651 91.4291 21.1215 91.5346 21.592H89.2673L89.1619 20.4418C88.6873 20.9124 88.2128 21.2261 87.7382 21.4875C87.2637 21.6966 86.7364 21.8534 86.2619 21.8534C85.4182 21.8534 84.7855 21.592 84.3109 21.0169C83.8364 20.4419 83.7309 19.7099 83.8364 18.7689C83.9419 18.1938 84.1 17.671 84.4164 17.2005C84.7328 16.7822 85.0491 16.4163 85.5237 16.1549C85.9455 15.8935 86.631 15.6321 87.58 15.4752C88.6873 15.2138 89.4782 15.0047 89.9 14.7956C90.0055 14.2205 90.0055 13.8546 89.9528 13.6454C89.9001 13.4886 89.7946 13.3318 89.5837 13.1749C89.3728 13.0704 89.0564 13.0181 88.6873 13.0181C88.2655 13.0181 87.9491 13.1226 87.6855 13.2795C87.3691 13.384 87.1582 13.6977 86.8946 14.2205ZM80.9891 16.3117C81.1473 15.3184 81.1473 14.4819 80.9364 13.8546C80.7255 13.2272 80.4091 12.9135 79.9873 12.9135C79.5655 12.9135 79.1437 13.2272 78.7219 13.8546C78.3 14.4819 78.0364 15.3184 77.8782 16.364C77.72 17.3573 77.7728 18.1415 77.9309 18.7166C78.1418 19.2917 78.4582 19.6054 78.9328 19.6054C79.3546 19.6054 79.7237 19.2917 80.1455 18.6643C80.5673 18.037 80.8837 17.2528 80.9891 16.3117ZM75.6637 16.1549C75.8218 15.1616 75.8218 14.3251 75.5582 13.75C75.3473 13.1749 75.0309 12.8612 74.6091 12.8612C74.1873 12.8612 73.7655 13.1749 73.3437 13.8023C72.9218 14.4296 72.6055 15.2661 72.4473 16.2594C72.2891 17.2528 72.2891 18.037 72.5 18.6643C72.7109 19.2917 73.0273 19.6054 73.5018 19.6054C73.9764 19.6054 74.3982 19.2917 74.82 18.6643C75.1891 18.0892 75.5055 17.2528 75.6637 16.1549ZM77.2982 20.285L76.4546 25.5653H74.1346L74.9782 20.285C74.1346 21.2783 73.2909 21.7489 72.4473 21.7489C71.4982 21.7489 70.8127 21.2261 70.3909 20.1804C69.9691 19.1348 69.8637 17.8278 70.1273 16.2072C70.3909 14.6388 70.9182 13.3318 71.7618 12.3384C72.6055 11.2928 73.4491 10.77 74.2928 10.77C75.1891 10.77 75.8218 11.2405 76.2437 12.2339L77.0873 7.00586H79.4073L78.5637 12.2862C79.3018 11.2405 80.1455 10.7177 81.0946 10.7177C81.9909 10.7177 82.6764 11.2405 83.0982 12.2862C83.52 13.3318 83.6255 14.6388 83.3619 16.2594C83.0982 17.7756 82.5709 19.0826 81.7273 20.1282C80.8837 21.1738 80.04 21.6966 79.1437 21.6966C78.3528 21.7489 77.72 21.2783 77.2982 20.285ZM62.64 16.2594C62.4818 17.305 62.5346 18.1415 62.9036 18.6643C63.22 19.1871 63.6946 19.5008 64.2746 19.5008C64.8546 19.5008 65.3818 19.2394 65.9091 18.6643C66.3837 18.1415 66.7527 17.305 66.9109 16.2594C67.0691 15.2138 67.0164 14.4296 66.6473 13.8546C66.3309 13.3318 65.8564 13.0181 65.2764 13.0181C64.6964 13.0181 64.1691 13.2795 63.6418 13.8546C63.1146 14.4296 62.7982 15.2138 62.64 16.2594ZM60.32 16.1026C60.4782 15.057 60.8473 14.116 61.3745 13.2795C61.9018 12.443 62.5346 11.8156 63.2727 11.3974C64.0109 10.9791 64.8018 10.77 65.5927 10.77C66.9636 10.77 68.0182 11.2928 68.5982 12.3907C69.2309 13.4886 69.4418 14.7433 69.1782 16.2072C69.02 17.305 68.6509 18.2461 68.0709 19.1348C67.5437 20.0236 66.8582 20.651 66.12 21.1215C65.3818 21.5397 64.5909 21.8011 63.8 21.8011C62.5346 21.8011 61.5327 21.3306 60.8473 20.3373C60.2145 19.2917 60.0036 17.9324 60.32 16.1026ZM53.2018 17.0436L52.78 19.7622H54.7836C55.9436 19.7622 56.5764 19.2917 56.7345 18.4029C56.7873 17.9847 56.7345 17.6187 56.4709 17.4096C56.2073 17.1482 55.6273 17.0436 54.6255 17.0436H53.2018ZM53.8345 12.7567L53.4127 15.3184H55.1C56.3127 15.3184 56.9982 14.8479 57.1564 13.9591C57.2618 13.1226 56.7345 12.7044 55.5218 12.7044H53.8345V12.7567ZM55.7855 21.4875H50.1436L51.8309 10.9791H56.9982C58.9491 10.9791 59.74 11.8679 59.4764 13.6977C59.2655 14.9002 58.6855 15.7366 57.6309 16.1026C58.7382 16.5208 59.2127 17.3573 59.0018 18.7166C58.8964 19.5531 58.5273 20.2327 57.9473 20.7032C57.3145 21.2783 56.6291 21.4875 55.7855 21.4875ZM42.9727 16.2594C42.8145 17.305 42.8673 18.1415 43.2363 18.6643C43.5527 19.1871 44.0273 19.5008 44.6073 19.5008C45.1873 19.5008 45.7145 19.2394 46.2418 18.6643C46.7163 18.1415 47.0854 17.305 47.2436 16.2594C47.4018 15.2138 47.3491 14.4296 46.98 13.8546C46.6636 13.3318 46.1891 13.0181 45.6091 13.0181C45.0291 13.0181 44.5018 13.2795 43.9745 13.8546C43.4473 14.4296 43.1309 15.2138 42.9727 16.2594ZM40.6527 16.1026C40.8109 15.057 41.18 14.116 41.7073 13.2795C42.2345 12.443 42.8673 11.8156 43.6054 11.3974C44.3436 10.9791 45.1345 10.77 45.9254 10.77C47.2964 10.77 48.3509 11.2928 48.9309 12.3907C49.5636 13.4886 49.7745 14.7433 49.5109 16.2072C49.3527 17.305 48.9836 18.2461 48.4036 19.1348C47.8764 20.0236 47.1909 20.651 46.4527 21.1215C45.7145 21.5397 44.9236 21.8011 44.1327 21.8011C42.8673 21.8011 41.8654 21.3306 41.18 20.3373C40.5473 19.2917 40.3363 17.9324 40.6527 16.1026ZM28.6836 21.4875L31.0036 7.00586H33.4291L32.5327 12.7044H37.2782L38.1745 7.00586H40.6L38.28 21.4875H35.8545L36.8563 15.1616H32.1109L31.1091 21.4875H28.6836Z" fill="white"/>
<path d="M105.613 34.4524H105.191L105.507 32.6749C106.562 32.6749 107.195 32.2044 107.353 31.3156C107.406 30.9496 107.353 30.6359 107.195 30.3745C107.036 30.1131 106.773 30.0086 106.404 30.0086C105.718 30.0086 105.138 30.4791 104.716 31.3679L102.818 30.8451C103.556 29.0153 104.875 28.0742 106.72 28.0742C107.722 28.0742 108.46 28.3356 108.987 28.9107C109.515 29.4858 109.673 30.2177 109.515 31.1065C109.356 32.0998 108.724 32.884 107.564 33.4591C108.776 33.9296 109.251 34.7661 109.04 36.0208C108.882 36.9096 108.46 37.5892 107.722 38.1643C106.984 38.7394 106.035 39.0008 104.927 39.0008C102.924 39.0008 101.816 38.0075 101.606 36.0731L103.767 35.6026C103.926 36.6482 104.4 37.1187 105.191 37.1187C105.613 37.1187 105.929 36.9618 106.298 36.7004C106.615 36.439 106.826 36.1254 106.878 35.7071C106.931 35.2889 106.878 34.9752 106.615 34.7661C106.351 34.557 106.035 34.4524 105.613 34.4524ZM99.1274 32.6226C99.2328 31.7861 99.1801 31.211 98.9165 30.7928C98.6528 30.3746 98.2837 30.1654 97.8092 30.1654C97.3346 30.1654 96.8601 30.3746 96.491 30.7928C96.0692 31.211 95.8055 31.8384 95.7001 32.6226H99.1274ZM98.5474 35.4457L100.762 35.9162C100.287 36.9618 99.7074 37.746 98.9692 38.2689C98.231 38.7917 97.4401 39.0531 96.491 39.0531C95.2255 39.0531 94.2765 38.6348 93.7492 37.7983C93.0637 36.805 92.9055 35.4457 93.1692 33.6682C93.4328 31.8907 94.1183 30.5314 95.1201 29.4335C95.9637 28.5447 96.9655 28.1265 98.0728 28.1265C99.3383 28.1265 100.235 28.597 100.762 29.4858C101.395 30.5314 101.553 32.0475 101.236 34.0864L101.184 34.4001H95.4364C95.331 35.2366 95.3837 35.864 95.7001 36.3345C95.9637 36.805 96.3855 37.0141 96.9128 37.0141C97.5455 36.9096 98.1255 36.439 98.5474 35.4457ZM85.2073 30.4791L85.5764 28.2833H93.4328L93.0637 30.4791H90.2692L88.8983 38.7917H86.5783L87.9492 30.4791H85.2073ZM74.7673 38.7917L76.4546 28.2833H78.7746L78.1419 32.0998H81.411L82.0437 28.2833H84.3637L82.6764 38.7917H80.3564L81.0946 34.3478H77.8255L77.0873 38.7917H74.7673ZM64.6437 38.7917L66.331 28.2833H68.5455L67.491 34.8706L72.0782 28.2833H74.3455L72.6582 38.7917H70.4437L71.551 32.0475L66.8582 38.7917H64.6437ZM64.2746 31.4202L61.9546 31.8907C61.9546 30.7928 61.5328 30.2177 60.6364 30.2177C60.0564 30.2177 59.5819 30.4268 59.16 30.9496C58.7382 31.4202 58.4219 32.2044 58.2637 33.3545C58.0528 34.6092 58.1055 35.498 58.3691 35.9685C58.6328 36.4913 59.0546 36.7527 59.6346 36.7527C60.0564 36.7527 60.4255 36.5959 60.7946 36.3345C61.111 36.0208 61.4273 35.498 61.6382 34.7661L63.8 35.2366C62.9037 37.746 61.3746 39.0531 59.16 39.0531C57.7364 39.0531 56.7873 38.5302 56.26 37.4324C55.7328 36.3868 55.6273 35.0798 55.8382 33.5636C56.1546 31.7861 56.7346 30.3745 57.6837 29.4335C58.6328 28.4925 59.6873 28.0219 60.9528 28.0219C61.9546 28.0219 62.7455 28.2833 63.3255 28.8061C63.8528 29.3812 64.1691 30.2177 64.2746 31.4202ZM48.0346 33.5114C47.8764 34.557 47.9291 35.3934 48.2455 35.9162C48.5618 36.439 49.0364 36.7527 49.6164 36.7527C50.1964 36.7527 50.7237 36.4913 51.2509 35.9162C51.7255 35.3934 52.0946 34.557 52.2528 33.5114C52.4109 32.4658 52.3582 31.6816 51.9891 31.1065C51.6728 30.5837 51.1982 30.27 50.6182 30.27C50.0382 30.27 49.5109 30.5314 48.9837 31.1065C48.5618 31.6816 48.1928 32.4658 48.0346 33.5114ZM45.7146 33.4068C45.8727 32.3612 46.2418 31.4202 46.7691 30.5837C47.2964 29.7472 47.9818 29.1198 48.6673 28.7016C49.4055 28.2833 50.1964 28.0742 50.9873 28.0742C52.3582 28.0742 53.36 28.597 53.9928 29.6949C54.6255 30.7928 54.7837 32.0475 54.5728 33.5114C54.4146 34.6092 54.0455 35.5503 53.4655 36.439C52.8855 37.3278 52.2528 37.9552 51.5146 38.4257C50.7764 38.8439 49.9855 39.1053 49.1946 39.1053C47.9291 39.1053 46.9273 38.6348 46.2418 37.6415C45.6091 36.5959 45.3982 35.1843 45.7146 33.4068ZM40.8637 38.7917L42.5509 28.2833H44.8709L43.1837 38.7917H40.8637ZM42.7618 26.8718L43.1837 24.3101H45.5037L45.0818 26.8718H42.7618ZM32.4273 32.518L31.7946 36.3345H34.3255C35.0109 36.3345 35.4855 36.2822 35.8018 36.1776C36.1182 36.0731 36.3818 35.864 36.6982 35.5503C36.9618 35.2366 37.12 34.8706 37.2255 34.4001C37.4364 33.0931 36.7509 32.4658 35.1164 32.4658H32.4273V32.518ZM29 38.7917L31.3727 24.3101H40.3364L39.9146 26.7672H33.3764L32.8491 30.0609H36.2764C37.5946 30.0609 38.5436 30.4791 39.1236 31.2633C39.7564 32.0475 39.9146 33.0931 39.7037 34.4524C39.4927 35.6026 39.0182 36.5959 38.28 37.4846C37.4891 38.3734 36.3818 38.7917 34.8527 38.7917H29Z" fill="white"/>
<path fill-rule="evenodd" clip-rule="evenodd" d="M127.995 9.85058C127.995 9.76059 127.964 9.6706 127.933 9.58061C127.901 9.49063 127.839 9.43064 127.713 9.40064C127.62 9.34065 127.526 9.31065 127.401 9.31065C127.275 9.31065 127.15 9.28066 126.994 9.28066H126.65V10.5405H126.931C127.119 10.5405 127.275 10.5405 127.432 10.5105C127.557 10.4805 127.682 10.4505 127.745 10.3905C127.839 10.3305 127.901 10.2705 127.933 10.1805C127.964 10.0905 127.995 9.97056 127.995 9.85058ZM129.966 13.0301H128.527L127.119 11.3804H126.65V13.0301H125.523V8.53076H127.275C127.588 8.53076 127.87 8.53076 128.058 8.56076C128.245 8.59075 128.433 8.65074 128.652 8.74073C128.871 8.86071 129.028 8.9807 129.122 9.16067C129.215 9.31065 129.278 9.52062 129.278 9.76059C129.278 10.0905 129.184 10.3605 128.996 10.5705C128.809 10.7804 128.558 10.9604 128.245 11.0804L129.966 13.0301ZM130.968 10.8704C130.968 9.91057 130.624 9.07069 129.904 8.35079C129.184 7.66088 128.339 7.30093 127.369 7.30093C126.368 7.30093 125.523 7.66088 124.835 8.35079C124.115 9.04069 123.771 9.88057 123.771 10.8704C123.771 11.8303 124.115 12.6702 124.835 13.3901C125.523 14.08 126.399 14.4399 127.369 14.4399C128.371 14.4399 129.215 14.08 129.904 13.3901C130.624 12.6702 130.968 11.8603 130.968 10.8704ZM132 10.8704C132 12.1303 131.562 13.1801 130.655 14.08C129.747 14.9799 128.652 15.3998 127.401 15.3998C126.118 15.3998 125.022 14.9499 124.115 14.08C123.208 13.1801 122.77 12.1303 122.77 10.8704C122.77 9.61061 123.208 8.56076 124.115 7.66088C125.022 6.76101 126.118 6.34106 127.401 6.34106C128.684 6.34106 129.779 6.791 130.655 7.66088C131.531 8.56076 132 9.61061 132 10.8704Z" fill="white"/>
</svg>
